<?xml version="1.0" encoding="utf-8"?>
<!-- Generator: Adobe Illustrator 23.0.2, SVG Export Plug-In . SVG Version: 6.00 Build 0)  -->
<svg version="1.1" id="Layer_1" xmlns="http://www.w3.org/2000/svg" xmlns:xlink="http://www.w3.org/1999/xlink" x="0px" y="0px"
	 viewBox="0 0 288 266.6" style="enable-background:new 0 0 288 266.6;" xml:space="preserve">
<style type="text/css">
	.st0{font-family:'GalanoGrotesqueDEMO-Bold';}
	.st1{font-size:23.9571px;}
</style>
<g>
	<path d="M142.6,185.6c-45.9,0-79.5-13.2-85.1-59.3c-6.3-52.1,27.8-81.5,73.8-87.7c22.9-2.7,47.5,9.1,63.9,25.5v27.6h-65.6
		l-14.7,14.7v0.2h44.5V122c-4.6-2.4-10.2-4.5-19-3.4c-17.8,2.2-46.3,25.4-46.3,38.3c0,5.7,2,10.3,5.8,13.3c5,3.9,12.5,4.7,21.8,2.3
		c13.6-3.5,29.1-10.2,37.7-16.8v31.3h25.6v-41c2.6-1.7,6-3.5,8.5-4.2c0.8-0.2,0.7-0.3,1.6-0.4v45.6h20c3.7,0.1,6.8-0.1,10.6-0.1
		c15.6,0.1,28.8-12.3,28.8-27.9c0.1-16.5-13.3-29.8-29.7-29.8c-3.4,0-6.7,0.6-9.7,1.6v-24.2h22.6l16.8-14.8v-0.1h-39.5L215.1,64
		c-19.8-21.7-48.1-37-80.6-35.3C74.1,31.9,32.5,74.9,43,131.2c11,38.6,42.9,55.8,102.5,55.8 M195.2,130.9c-1.6,0.1-3.8,0.8-5,1.3
		c-1.9,0.7-3.6,1.4-5,2.8v-28.5h10.1V130.9z"/>
	<g>
		<text transform="matrix(1.0989 0 0 1 41.4023 221.573)" class="st0 st1">Karan Budhwani</text>
		<rect x="41.4" y="197.1" width="213.3" height="2.5"/>
		<rect x="41.4" y="226.1" width="213.3" height="2.5"/>
	</g>
</g>
</svg>
